<svg viewBox="0 0 800 600" xmlns="http://www.w3.org/2000/svg" preserveAspectRatio="xMidYMid slice">
  <defs>
    <filter id="grain">
      <feTurbulence type="fractalNoise" baseFrequency="0.85" numOctaves="3" stitchTiles="stitch"/>
      <feColorMatrix type="matrix" values="
        0 0 0 0 0.34
        0 0 0 0 0.22
        0 0 0 0 0.08
        0 0 0 0.22 0"/>
      <feComposite in2="SourceGraphic" operator="in"/>
    </filter>
    <linearGradient id="sky" x10="0" y110 x210 y211">
      <stop offset100%" stop-color="#a89878"/>
      <stop offset100%" stop-color="#c8b896"/>
    </linearGradient>
    <linearGradient id="cliffL" x111 y110 x210 y211">
      <stop offset100%" stop-color="#6b5540"/>
      <stop offset100%" stop-color="#3a2d20"/>
    </linearGradient>
    <linearGradient id="river" x111 y110 x200 y211">
      <stop offset1="0%" stop-color="#6a7a55"/>
      <stop offset1="50%" stop-color="#5a6a40"/>
      <stop offset1="100%" stop-color="#4a5a30"/>
    </linearGradient>
  </defs>

  <rect width="800" height="600" fill="#c8b896"/>

  <path d="M0,250 L120,170 L220,220 L320,160 L420,230 L520,180 L620,240 L720,190 L800,250 L800,450 L0,450 Z" fill="#7a6a4a" opacity="0.5"/>

  <path d="M0,330 Q100,380 150,360 Q200,340 250,380 Q300,420 350,390 Q400,360 450,400 Q500,440 550,410 Q600,380 650,420 Q700,460 750,430 Q780,410 800,430 L800,600 L0,600 Z" fill="url(#cliffL)" opacity="0.95"/>

  <path d="M0,470 L200,430 L400,460 L600,440 L800,470 L800,600 L0,600 Z" fill="#5a4a32" opacity="0.9"/>

  <rect y="500" width="800" height="100" fill="url(#river)"/>

  <g fill="#7a8a55" opacity="0.45">
    <path d="M0,505 Q150,495 300,500 Q450,505 600,500 Q700,497 800,505 L800,520 Q700,512 550,518 Q400,525 250,518 Q120,512 0,522 Z"/>
    <path d="M0,540 Q200,530 400,536 Q600,542 800,535 L800,555 Q600,548 400,555 Q200,560 0,552 Z" opacity="0.6"/>
  </g>

  <g fill="none" stroke="#4a5a2a" stroke-width="1" opacity="0.3">
    <path d="M0,515 Q200,505 400,510 Q600,515 800,508" stroke-dasharray="3,8"/>
    <path d="M0,555 Q200,545 400,550 Q600,555 800,548" stroke-dasharray="2,6"/>
  </g>

  <g fill="#7a6548" opacity="0.8">
    <g>
      <rect x="340" y="370" width="50" height="80"/>
      <polygon points="330,370 365,340 400,370" fill="#5a4a32"/>
      <rect x="355" y="405" width="20" height="45" fill="#3a2d20"/>
    </g>
    <g transform="translate(80, 25) scale(0.8)">
      <rect x="340" y="370" width="45" height="70"/>
      <polygon points="332,370 362,345 393,370" fill="#5a4a32"/>
      <rect x="352" y="400" width="18" height="40" fill="#3a2d20"/>
    </g>
    <g transform="translate(280, -10) scale(0.75)">
      <rect x="340" y="370" width="42" height="65"/>
      <polygon points="333,370 361,348 389,370" fill="#5a4a32"/>
      <rect x="351" y="398" width="16" height="37" fill="#3a2d20"/>
    </g>
    <g transform="translate(-50, 40) scale(0.65)">
      <rect x="340" y="370" width="38" height="60"/>
      <polygon points="334,370 359,350 384,370" fill="#5a4a32"/>
      <rect x="350" y="398" width="14" height="32" fill="#3a2d20"/>
    </g>
  </g>

  <g fill="#c9b896" opacity="0.55">
    <path d="M365,455 L370,470 L375,455 Z"/>
    <path d="M350,450 L355,468 L360,450 Z"/>
    <path d="M380,448 L385,465 L390,448 Z"/>
    <path d="M165,470 L168,485 L171,470 Z" opacity="0.7"/>
    <path d="M600,460 L604,478 L608,460 Z" opacity="0.6"/>
  </g>

  <g fill="#5a4a30" opacity="0.5">
    <rect x="320" y="465" width="14" height="55" rx="3"/>
    <rect x="380" y="470" width="12" height="50" rx="3"/>
    <rect x="150" y="480" width="10" height="40" rx="2.5"/>
    <rect x="605" y="475" width="11" height="45" rx="3"/>
  </g>

  <g fill="#d9c8a6" opacity="0.5">
    <rect x="315" y="462" width="24" height="8" rx="2"/>
    <rect x="375" y="468" width="22" height="7" rx="2"/>
  </g>

  <g fill="#3a2d20" opacity="0.7">
    <ellipse cx="280" cy="520" rx="18" ry="7"/>
    <ellipse cx="320" cy="525" rx="15" ry="6"/>
    <ellipse cx="450" cy="518" rx="20" ry="8"/>
  </g>

  <g fill="#8b7355" opacity="0.65">
    <ellipse cx="480" cy="545" rx="28" ry="12"/>
    <ellipse cx="480" cy="545" rx="20" ry="8" fill="#7a6548" opacity="0.6"/>
    <rect x="462" y="500" width="10" height="48" rx="3"/>
    <rect x="488" y="500" width="10" height="48" rx="3"/>
    <rect x="458" y="495" width="18" height="18" rx="4"/>
    <rect x="484" y="495" width="18" height="18" rx="4"/>
  </g>

  <g fill="#f9a825" opacity="0.5">
    <rect x="455" y="485" width="24" height="14" rx="2"/>
    <rect x="458" y="470" width="18" height="18" rx="3" opacity="0.8"/>
  </g>

  <g stroke="#6b5540" stroke-width="1.5" fill="none" opacity="0.4">
    <path d="M280,540 Q350,525 430,535 Q520,545 620,535 Q700,528 800,540" stroke-dasharray="5,8"/>
  </g>

  <rect width="800" height="600" filter="url(#grain)" opacity="0.4"/>
  <rect width="800" height="600" fill="#6b5540" opacity="0.15" style="mix-blend-mode:multiply"/>

  <rect x11" y1="0" width="800" height="3" fill="#4a3c2c" opacity="0.5"/>
  <rect x11" y="597" width="800" height="3" fill="#4a3c2c" opacity="0.5"/>
</svg>
