<svg viewBox="0 0 800 600" xmlns="http://www.w3.org/2000/svg" preserveAspectRatio="xMidYMid slice">
  <defs>
    <filter id="grain">
      <feTurbulence type="fractalNoise" baseFrequency="0.85" numOctaves="3" stitchTiles="stitch"/>
      <feColorMatrix type="matrix" values="
        0 0 0 0 0.35
        0 0 0 0 0.22
        0 0 0 0 0.08
        0 0 0 0.2 0"/>
      <feComposite in2="SourceGraphic" operator="in"/>
    </filter>
    <linearGradient id="sky" x1="0" y1="0" x2="0" y2="1">
      <stop offset="0%" stop-color="#c2b08c"/>
      <stop offset="100%" stop-color="#d9c8a6"/>
    </linearGradient>
    <linearGradient id="mt" x1="0" y1="0" x2="0" y2="1">
      <stop offset="0%" stop-color="#6b5540"/>
      <stop offset="100%" stop-color="#8b7355"/>
    </linearGradient>
    <linearGradient id="ground" x1="0" y1="0" x2="0" y2="1">
      <stop offset="0%" stop-color="#7a6a4a"/>
      <stop offset="100%" stop-color="#5a4a30"/>
    </linearGradient>
  </defs>

  <rect width="800" height="600" fill="url(#sky)"/>

  <path d="M0,280 L120,220 L240,260 L380,190 L520,250 L660,200 L800,260 L800,380 L0,380 Z" fill="url(#mt)" opacity="0.7"/>
  <path d="M0,360 L150,300 L280,340 L420,280 L560,330 L700,280 L800,320 L800,450 L0,450 Z" fill="url(#mt)" opacity="0.9"/>

  <path d="M0,450 L800,450 L800,600 L0,600 Z" fill="url(#ground)"/>

  <path d="M0,480 Q200,460 400,475 Q600,490 800,470" fill="none" stroke="#5a4a30" stroke-width="3" opacity="0.6"/>
  <path d="M0,500 Q200,480 400,495 Q600,510 800,490" fill="none" stroke="#4a3c2c" stroke-width="2" opacity="0.5"/>

  <g fill="#3E2D20">
    <g>
      <ellipse cx="180" cy="510" rx="28" ry="12" fill="#2E1F15"/>
      <rect x="168" y="440" width="24" height="70" rx="3"/>
      <rect x="158" y="455" width="44" height="50" rx="4"/>
      <circle cx="180" cy="425" r="14"/>
      <rect x="172" y="470" width="16" height="40" fill="#c9b896" opacity="0.25"/>
      <rect x="175" y="415" width="10" height="6" fill="#8b7355" rx="1"/>
      <rect x="150" y="465" width="8" height="45" rx="2" opacity="0.8"/>
      <rect x="202" y="465" width="8" height="45" rx="2" opacity="0.8"/>
    </g>

    <g transform="translate(80, 5) scale(0.92)">
      <ellipse cx="180" cy="510" rx="26" ry="11" fill="#2E1F15"/>
      <rect x="168" y="440" width="24" height="70" rx="3"/>
      <rect x="158" y="455" width="44" height="50" rx="4"/>
      <circle cx="180" cy="425" r="13"/>
      <rect x="172" y="470" width="16" height="40" fill="#c9b896" opacity="0.25"/>
      <rect x="175" y="415" width="10" height="6" fill="#8b7355" rx="1"/>
      <rect x="150" y="465" width="7" height="45" rx="2" opacity="0.8"/>
      <rect x="203" y="465" width="7" height="45" rx="2" opacity="0.8"/>
    </g>

    <g transform="translate(180, 15) scale(0.85)">
      <ellipse cx="180" cy="510" rx="24" ry="10" fill="#2E1F15"/>
      <rect x="168" y="440" width="24" height="70" rx="3"/>
      <rect x="158" y="455" width="44" height="50" rx="4"/>
      <circle cx="180" cy="425" r="12"/>
      <rect x="172" y="470" width="16" height="40" fill="#c9b896" opacity="0.2"/>
      <rect x="175" y="415" width="10" height="6" fill="#8b7355" rx="1"/>
      <rect x="150" y="465" width="7" height="45" rx="2" opacity="0.7"/>
      <rect x="203" y="465" width="7" height="45" rx="2" opacity="0.7"/>
    </g>

    <g transform="translate(280, -5) scale(0.95)">
      <ellipse cx="180" cy="510" rx="28" ry="12" fill="#2E1F15"/>
      <rect x="168" y="440" width="24" height="70" rx="3"/>
      <rect x="158" y="455" width="44" height="50" rx="4"/>
      <circle cx="180" cy="425" r="14"/>
      <rect x="172" y="470" width="16" height="40" fill="#c9b896" opacity="0.25"/>
      <rect x="175" y="415" width="10" height="6" fill="#8b7355" rx="1"/>
      <rect x="150" y="465" width="8" height="45" rx="2" opacity="0.8"/>
      <rect x="202" y="465" width="8" height="45" rx="2" opacity="0.8"/>
    </g>

    <g transform="translate(380, 8) scale(0.88)">
      <ellipse cx="180" cy="510" rx="26" ry="11" fill="#2E1F15"/>
      <rect x="168" y="440" width="24" height="70" rx="3"/>
      <rect x="158" y="455" width="44" height="50" rx="4"/>
      <circle cx="180" cy="425" r="13"/>
      <rect x="172" y="470" width="16" height="40" fill="#c9b896" opacity="0.2"/>
      <rect x="175" y="415" width="10" height="6" fill="#8b7355" rx="1"/>
      <rect x="150" y="465" width="7" height="45" rx="2" opacity="0.7"/>
      <rect x="203" y="465" width="7" height="45" rx="2" opacity="0.7"/>
    </g>
  </g>

  <g stroke="#5a4a30" stroke-width="1.5" fill="none" opacity="0.5">
    <path d="M80,520 L720,520" stroke-dasharray="4,6"/>
  </g>

  <g fill="#8b7355" opacity="0.5">
    <rect x="600" y="470" width="80" height="50" fill="#7a6a4a"/>
    <polygon points="590,470 640,445 690,470" fill="#6b5540"/>
    <rect x="620" y="485" width="18" height="35" fill="#5a4a30"/>
    <rect x="650" y="480" width="24" height="15" fill="#5a4a30"/>
  </g>

  <rect width="800" height="600" filter="url(#grain)" opacity="0.35"/>
  <rect width="800" height="600" fill="#8B5A2B" opacity="0.08" style="mix-blend-mode:multiply"/>

  <rect x="0" y="0" width="800" height="3" fill="#4a3c2c" opacity="0.5"/>
  <rect x="0" y="597" width="800" height="3" fill="#4a3c2c" opacity="0.5"/>
</svg>
