<svg viewBox="0 0 600 600" xmlns="http://www.w3.org/2000/svg">
  <defs>
    <filter id="grain">
      <feTurbulence type="fractalNoise" baseFrequency="0.9" numOctaves="3" stitchTiles="stitch"/>
      <feColorMatrix type="matrix" values="
        0 0 0 0 0.38
        0 0 0 0 0.25
        0 0 0 0 0.1
        0 0 0 0.2 0"/>
      <feComposite in2="SourceGraphic" operator="in"/>
    </filter>
    <radialGradient id="vignette">
      <stop offset="60%" stop-color="#000" stop-opacity="0"/>
      <stop offset="100%" stop-color="#000" stop-opacity="0.45"/>
    </radialGradient>
  </defs>

  <rect width="600" height="600" fill="#c9b896"/>

  <ellipse cx="300" cy="300" rx="220" ry="260" fill="#b8a682"/>

  <g>
    <ellipse cx="300" cy="250" rx="110" ry="115" fill="#8b7355"/>
    <rect x="210" y="120" width="180" height="130" rx="90" ry="65" fill="#7a6a4a"/>
  </g>

  <g fill="#5a4a30">
    <ellipse cx="258" cy="245" rx="22" ry="28"/>
    <ellipse cx="342" cy="245" rx="22" ry="28"/>
    <circle cx="258" cy="248" r="10" fill="#2E1F15"/>
    <circle cx="342" cy="248" r="10" fill="#2E1F15"/>
    <circle cx="261" cy="244" r="3.5" fill="#d9c8a6" opacity="0.4"/>
    <circle cx="345" cy="244" r="3.5" fill="#d9c8a6" opacity="0.4"/>
  </g>

  <g fill="#6b5540">
    <path d="M240,295 Q300,320 360,295 L355,315 Q300,335 245,315 Z"/>
    <ellipse cx="300" cy="305" rx="25" ry="12" fill="#4a3c2c" opacity="0.6"/>
  </g>

  <g fill="#6b5540">
    <path d="M260,128 Q280,108 300,105 Q320,108 340,128 L330,120 Q310,100 290,100 Q270,100 270,120 Z" opacity="0.7"/>
    <line x1="275" y1="115" x2="275" y2="140" stroke="#5a4a30" stroke-width="2"/>
    <line x1="300" y1="105" x2="300" y2="135" stroke="#5a4a30" stroke-width="2"/>
    <line x1="325" y1="115" x2="325" y2="140" stroke="#5a4a30" stroke-width="2"/>
  </g>

  <g fill="#5a4a30" opacity="0.7">
    <line x1="195" y1="230" x2="195" y2="350" stroke-width="14" stroke-linecap="round"/>
    <line x1="405" y1="230" x2="405" y2="350" stroke-width="14" stroke-linecap="round"/>
    <line x1="205" y1="220" x2="205" y2="360" stroke-width="10" stroke-linecap="round" stroke="#6b5540"/>
    <line x1="395" y1="220" x2="395" y2="360" stroke-width="10" stroke-linecap="round" stroke="#6b5540"/>
  </g>

  <g fill="#7a6a4a" opacity="0.5">
    <line x1="210" y1="250" x2="390" y2="250" stroke-width="4"/>
    <line x1="210" y1="285" x2="390" y2="285" stroke-width="4"/>
    <line x1="210" y1="320" x2="390" y2="320" stroke-width="4"/>
  </g>

  <g fill="#8b7355">
    <ellipse cx="300" cy="470" rx="70" ry="30" opacity="0.6"/>
    <ellipse cx="300" cy="470" rx="55" ry="22" fill="#7a6a4a" opacity="0.6"/>
    
    <rect x="240" y="400" width="20" height="70" rx="4"/>
    <rect x="340" y="400" width="20" height="70" rx="4"/>
    
    <rect x="235" y="395" width="30" height="25" rx="5"/>
    <rect x="335" y="395" width="30" height="25" rx="5"/>
  </g>

  <g fill="#c9b896" opacity="0.4">
    <ellipse cx="235" cy="270" rx="20" ry="15"/>
    <ellipse cx="365" cy="270" rx="20" ry="15"/>
    <ellipse cx="300" cy="210" rx="16" ry="10" opacity="0.6"/>
  </g>

  <g fill="#6b5540" opacity="0.8">
    <path d="M250,165 Q300,150 350,165 L345,173 Q300,158 255,173 Z" />
    <path d="M265,180 Q300,172 335,180 L330,187 Q300,179 270,187 Z" opacity="0.7"/>
  </g>

  <g fill="#7a6a4a" opacity="0.35">
    <line x1="260" y1="380" x2="260" y2="400" stroke-width="3"/>
    <line x1="300" y1="375" x2="300" y2="395" stroke-width="3"/>
    <line x1="340" y1="380" x2="340" y2="400" stroke-width="3"/>
    <line x1="280" y1="385" x2="280" y2="400" stroke-width="2.5"/>
    <line x1="320" y1="385" x2="320" y2="400" stroke-width="2.5"/>
  </g>

  <g fill="none" stroke="#6b5540" stroke-width="1.2" opacity="0.5">
    <circle cx="220" cy="200" r="4" />
    <circle cx="250" cy="175" r="3" />
    <circle cx="380" cy="195" r="4" />
    <circle cx="350" cy="170" r="3" />
    <circle cx="200" cy="310" r="3" />
    <circle cx="400" cy="305" r="3" />
    <circle cx="215" cy="370" r="3.5" />
    <circle cx="385" cy="368" r="3.5" />
  </g>

  <rect width="600" height="600" fill="url(#vignette)"/>
  <rect width="600" height="600" filter="url(#grain)" opacity="0.45"/>
  <rect width="600" height="600" fill="#8B5A2B" opacity="0.18" style="mix-blend-mode:multiply"/>

  <circle cx="300" cy="300" r="280" fill="none" stroke="#5a4a30" stroke-width="2" opacity="0.4"/>
  <circle cx="300" cy="300" r="270" fill="none" stroke="#5a4a30" stroke-width="1" opacity="0.3"/>
</svg>
